<svg xmlns="http://www.w3.org/2000/svg" width="100" height="81" viewBox="0 0 100 81">
    <g fill="none" fill-rule="evenodd">
        <path fill="#4D8DC8" d="M86.096 16.542c13.754 21.771 5.752 39.484-5.847 47.143-33.056 21.827-91.7 4.029-77.923-22.517C10.468 25.49 35.83 22.322 43.693 9.912c9.344-14.724 29.703-13.462 42.403 6.63z"/>
        <path stroke="#000" stroke-width=".5" d="M10.655 44.644c7.144.35 30.024 1.114 37.254.745 1.113-.05 2.001-.947 2.04-2.06.134-3.476.388-10.825.268-13.923a1.588 1.588 0 0 0-1.524-1.532c-7.517-.3-31.233-1.553-38.34.195a2.513 2.513 0 0 0-1.914 2.524l.385 12.2a1.92 1.92 0 0 0 1.831 1.85zM99.941 47.83c-8.773-.222-18.224-.203-22.275.802a2.513 2.513 0 0 0-1.915 2.524l.393 12.2a1.92 1.92 0 0 0 1.824 1.856c2.495.123 6.906.296 11.901.451M95.38 29.184c-7.278-.246-34.663-1.136-41.412-.802a1.508 1.508 0 0 0-1.433 1.553c.075 2.521.198 7.953.123 13.992-.01.727.562 1.33 1.289 1.355 6.48.241 32.676.407 41.176.075a2.441 2.441 0 0 0 2.329-2.176c.323-2.97.802-8.48.286-11.861a2.481 2.481 0 0 0-2.358-2.136zM74.05 9.22a1.634 1.634 0 0 0-1.518-1.566c-8.289-.597-34.642-.016-40.422.128A1.07 1.07 0 0 0 31.075 8.8c-.115 2.823.147 10.931.267 14.543a1.845 1.845 0 0 0 1.845 1.786c6.551.03 26.933.15 38.888 0a2.115 2.115 0 0 0 2.085-1.96c.26-3.475.014-10.845-.11-13.949z"/>
        <path fill="#FFF" d="M62.543 79.813h6.096s-.615-1.47-1.684-8.02c-1.07-6.55 0-29.272 0-29.272-4.279.802-46.792 0-46.792 0s.58 24.372-.49 30.697a15.236 15.236 0 0 1-2.05 5.395l5.882 2.138a36.35 36.35 0 0 0 2.222-8.02c.04.517.158 3.192-1.198 7.299l5.883.133s.802-4.277 1.133-8.196c-.085 3.7-.088 7.696.25 8.774h5.748v-1.203h4.992a1.62 1.62 0 0 1-.58.935h6.238c.89-1.248.657-4.01.657-4.01-.832-.607-.502.42.992 3.083h5.214v.935h5.57c.355-1.515 1.917-.668 1.917-.668z"/>
        <path stroke="#000" stroke-width=".5" d="M58.968 64.174c.51 10.905 2.505 14.837 2.505 14.837h6.097s-.615-1.47-1.685-8.02 0-29.272 0-29.272c-4.278.802-46.791 0-46.791 0s.58 24.372-.49 30.697a15.236 15.236 0 0 1-2.05 5.395l5.882 2.138S25.51 73 25.11 64.624"/>
        <path stroke="#000" stroke-width=".5" d="M47.97 64.174s-1.604 10.293.803 14.57h6.15s-2.006-4.411-1.337-12.698M36.206 64.174s.267 11.362-.802 14.57h6.657s-.294-9.49 0-13.233"/>
        <path stroke="#000" stroke-width=".5" d="M30.725 64.174s-.669 13.634 0 15.773h5.748v-1.203"/>
        <path stroke="#000" stroke-width=".5" d="M24.65 71.844s.326 2.802-1.19 7.392l5.882.133s1.439-7.573 1.24-11.762M47.78 75.672s.236 2.762-.657 4.01h-6.238a1.62 1.62 0 0 0 .58-.936M59.714 72.06s.2 6.104-.158 7.62h-5.57v-.936"/>
        <path fill="#13344B" fill-rule="nonzero" d="M80.19 36.044c-.032-1.77-.268-3.545-.439-5.315v-.016a.364.364 0 0 0 .174-.326V23.45a.502.502 0 0 0 .016-.102v-.187a.425.425 0 0 0 .091-.248c.055-.921.055-1.844 0-2.765 0-1.144-.034-2.289-.102-3.435a.401.401 0 0 0-.802 0c-.016.195-.026.388-.037.583a.358.358 0 0 0-.056.054 9.443 9.443 0 0 0-.375-1.024h.303c.518.021.513-.773 0-.802a19.338 19.338 0 0 0-4.123.115c.112-.249 0-.591-.34-.564a35.79 35.79 0 0 0-4.66.668.398.398 0 0 0-.388-.348c-2.171 0-4.339.062-6.503.185a95.917 95.917 0 0 0-7.655-.2.404.404 0 0 0-.107.788l.131.035a.388.388 0 0 0 0 .093c.014.225.022.444.024.663-.211-.323-.783-.096-.714.348.153.978.268 1.96.37 2.94a.374.374 0 0 0-.193.334l-.104 4.112a41.816 41.816 0 0 0-.057 2.246.366.366 0 0 0 .158.312v.318a.382.382 0 0 0 .072.23v.372c-.534.842-.486 2.502-.599 3.237-.32 2.082-.623 4.165-.909 6.25a.433.433 0 0 0 .479.506.369.369 0 0 0 .34.2h.336l-.05.433h.585c.196-.037.393-.071.591-.101l.019-.118a7.862 7.862 0 0 0 1.508-.094v.062h.166c.221-.008.441.04.639.142l.04-.49a.433.433 0 0 0 .024-.302c.128-1.627.21-3.256.246-4.886h.016c.059 2 .173 4 .342 5.998a3.03 3.03 0 0 1 .979.022l.016-.217a7.07 7.07 0 0 0 3.227.112c.481-.09.305-.74-.107-.788h-.048a.345.345 0 0 0 .043-.086.433.433 0 0 0 .128.016c.396 0 .802-.042 1.18-.077v.267c0 .516.785.516.801 0v-.289h.062c.62.067 1.24.113 1.871.147a.39.39 0 0 0-.056.212c-.318.179-.267.764.185.748l1.32-.043a7.424 7.424 0 0 0 3.153-.11.404.404 0 0 0-.107-.788l-1.5.048.39-.024h.5a.404.404 0 0 0 .067-.802.377.377 0 0 0 .134-.267l.021-.842a.385.385 0 0 0 .19-.324c.072-2.823.153-5.646.316-8.463l.802-.268-.695.629c-.24.216-.064.73.283.684.187-.024.372-.053.554-.085a.316.316 0 0 0 .267.106l-.03.033a.406.406 0 0 0 .284.684c.693.053 1.211-.217 1.872-.332a1.76 1.76 0 0 1 1.3.204 186.768 186.768 0 0 0-.108 5.996c-.307.203-.62.403-.912.612-.291.208-.235.788.204.748.238-.021.476-.04.714-.053v.764c-.126.054-.268.102-.383.158a.404.404 0 0 0 .096.733l.779.13c-.563.142-1.132.254-1.706.337-.45.065-.34.802.107.79l3.05-.081c.468 0 1.07.064 1.434-.294l.267.099c.267.101.479-.153.508-.388.08-.683.12-1.37.12-2.058a.422.422 0 0 0-.03-.564zm-25.615.136c-.08.11-.16.217-.246.323.062-.447.126-.892.19-1.336a.41.41 0 0 0 .144 0c-.032.337-.061.676-.088 1.013zm1.019-13.027c0-.093.013-.187.021-.28a.436.436 0 0 0 .083-.014l.243.535c-.112.45-.228.896-.347 1.336-.002-.518-.003-1.044-.003-1.577h.003zm.066 4.529v-.268c.102-.328.201-.656.297-.986l-.115 1.133-.035.12a1.262 1.262 0 0 0-.147 0zm.166 9.803c.027-.177.054-.353.08-.535 0 .09 0 .182.022.267a.39.39 0 0 0 .059.169.893.893 0 0 1-.163.096l.002.003zm.12-16.024v-.786c.065.412.132.82.193 1.232l-.192-.446zm.506 3.181l-.145 1.126a.422.422 0 0 0-.192.101c.115-.409.23-.818.337-1.23v.003zm.369 5.333c.04-.406.088-.802.142-1.216h.032c0 .198.016.393.03.59a.39.39 0 0 0 .202.335l-.107.802-.291.024-.008-.535zm-.096-11.572c.082.018.168.037.25.05-.026.15-.05.303-.077.452-.061-.165-.12-.334-.176-.502h.003zm.123 14.168v-.895l.13.02c-.037.343-.072.69-.109 1.04a.873.873 0 0 1-.024-.17l.003.005zm.358 5.058h-.294c.096-.216.164-.443.2-.676l.166-.984-.072 1.66zm-.131-20.368h-.693v-.484c.37.142.73.303 1.083.476a2.408 2.408 0 0 0-.393.003l.003.005zm12.978 4.02c.038.135.078.268.118.4l-.286.071v-.173a.382.382 0 0 0-.064-.225l.232-.072zm-.601-1.723l.163-.024.027.128-.22.05.03-.154zm-1.308-2.618l.52-.12.483.019-.032.171-.374.134-.316.021a.436.436 0 0 0-.323-.2l.042-.025zm.912 5.882v.096l-.495.043.495-.14zm-.86-2.818l-.07-.152.508-.252-.06.319-.379.085zm-5.661-1.369v.238l-.15.072-.086-.312.236.002zm-2.22-1.384a.428.428 0 0 0-.02.12v.305a.38.38 0 0 0-.14.192 15.867 15.867 0 0 1-.045-.623l.206.006zm-1.991 1.256l-.017.446-.144-.43.16-.016zm0 7.1a5.679 5.679 0 0 1-.18-.478l.2-.105c.006.18 0 .372-.007.567l-.013.016zm-.268-1.775c.046-.178.088-.356.126-.534.07.144.136.29.206.438l-.332.096zm.364-6.99c.313.04.623.077.938.104a.404.404 0 0 0-.061.211v.206c-.289-.18-.581-.354-.877-.521zm.35 4.836h.15a.377.377 0 0 0 .51 0h.12v.451c-.275-.103-.55-.212-.82-.326l.04-.125zm.38 12.807a90.022 90.022 0 0 1-.06-1.703l.19-.064-.13 1.767zm.235-3.176l-.324-.056v-.107l.34-.026-.016.19zm-.332-.962v-.995l.15.033c.046.312.088.628.129.94l-.279.022zm.471-7.138l-.085.07a.374.374 0 0 0-.1.128l-.168.067a27.19 27.19 0 0 0-.364-.762c.156.062.31.118.466.177a.337.337 0 0 0 .267.213.272.272 0 0 0-.013.091l-.003.016zm0 3.286a.396.396 0 0 0 .198.17l-.048.64c-.048-.286-.088-.556-.14-.84l-.01.03zm.406 11.062c-.077.018-.15.03-.219.043l.051-.682.211.085a.42.42 0 0 0 .474.383 2.91 2.91 0 0 1-.506.155l-.01.016zm.696-8.953a39.988 39.988 0 0 0-.04-.46v-.222l.029-.125c0 .11.006.22.019.331 0 .158-.003.316-.008.476zm.695-9.624l-.08-.075c0-.066-.024-.133-.032-.2h.117c0 .077-.005.17-.008.275h.003zm-.209-1.542v-.07a.46.46 0 0 0 0-.085l.709.032a6.07 6.07 0 0 0-.711.112l.002.01zm.554 6.416a.449.449 0 0 0-.03-.142l.123-.03.64.182-.725.195c-.006-.066-.008-.136-.01-.203l.002-.002zm2.198 6.71a.39.39 0 0 0 .12.034c-.078.394-.161.787-.249 1.18l-.457.133a.398.398 0 0 0-.05.027v-.824a.388.388 0 0 0 .652-.289c-.006-.082-.014-.17-.019-.259l.003-.003zm-.663-5.08c-.268-.214-.557-.425-.835-.636a.372.372 0 0 0-.085-.064l-.043-.035c.342-.08.685-.156 1.03-.227-.015.328-.037.651-.067.97v-.008zm-.677 2.51c0 .107 0 .217-.019.324l-.075 1.104-.029-1.644.123.216zm-.78-1.104a.409.409 0 0 0 .042-.107c0-.026.016-.053.021-.08l.268.49a.433.433 0 0 0-.332.09c.003-.12.003-.25 0-.382v-.01zm1.489 9.916l-.554.358a.382.382 0 0 0-.184.323 10.721 10.721 0 0 0-.69-.47c0-.038.005-.075.016-.113a.984.984 0 0 0 .802-.604l.061-.013a.41.41 0 0 0 .557.144.478.478 0 0 0-.008.385v-.01zm.037-3.104a51.022 51.022 0 0 1-.032-1.04c.046.019.095.03.144.032h.14c-.08.344-.164.683-.25 1.016l-.002-.008zm.856 1.398l-.145.03a.369.369 0 0 0-.115.048l-.182.045c.057-.195.115-.39.169-.588l.283.04-.01.425zm.163-6.499l-.182.046a.404.404 0 0 0 .094.786l-.06.318-.224.056a.41.41 0 0 0-.099.04c-.021-.267-.05-.535-.08-.818a.388.388 0 0 0 .088-.238c0-.329.024-.658.038-.986l.435.382-.01.414zm-.086-4.092l-.032-.166.425.115-.393.05zm-.936-2c-.342.075-.683.152-1.024.232l1.302-.644c.22.12.535.083.573-.219v-.045l.513-.137c.028.06.074.108.131.14a606.5 606.5 0 0 1-1.492.678l-.003-.005zm1.006-5.9a.396.396 0 0 0-.169-.118l.145-.021c.625.045 1.25.094 1.871.147l-.248.064-1.6-.072zm.887 14.764l-.09.025.024-.773h.417l.03.088-.145.043a.441.441 0 0 0-.236.623v-.006zm.022-6.148h.05c.092.13.177.267.268.409l-.267.072a37.553 37.553 0 0 1-.051-.484v.003zm.347 8.945l-.32-.11.534.035-.214.075zm-.516-1.07v-.331l.896.035v.117l-.896.18zm1.14-14.192l.465-.16c-.06.227-.118.457-.18.684l-.157.064a15.343 15.343 0 0 1-.19-.535l.061-.053zm.072 5.192l-.014-.075c.313-.043.626-.083.939-.12h.048c-.275.083-.55.16-.829.23l-.144-.035zm.187 1.007l.302-.03.356.116-.613.171-.045-.257zm.15 2.021c0-.192-.02-.385-.033-.574.19 0 .383 0 .573.016 0 .112 0 .224.016.334-.185.072-.37.147-.557.219v.005zm.451 4.914l-.072-.268.399-.09v.368l-.327-.01zm.514-13.54c.363 0 .727 0 1.09.024l-.908.377-.182-.401zm.342 7.3l.535-.152.305.118-.252.13c-.198-.029-.398-.05-.596-.072l.008-.024zm.107 1.604c.178-.083.356-.173.535-.267-.016.102-.03.206-.043.307l-.476.024a.213.213 0 0 1-.016-.082v.018zm.34 2.521H68.2c-.017-.115-.027-.23-.04-.342a.396.396 0 0 0 .157-.19c-.002.158-.005.337-.002.514v.018zm0-.882a.305.305 0 0 0-.246-.192c0-.115-.027-.23-.038-.345l.318-.08-.024.598-.01.019zm1.812 8.325c-.58.018-1.16.021-1.74 0a.4.4 0 0 0 .018-.075c0-.07 0-.137.016-.206a.366.366 0 0 0 .188-.102l.32.035a.41.41 0 0 0 .535.064c.2.027.4.056.6.088.01.067.04.13.085.18l-.022.016zm.182-10.426l-.085.064a.441.441 0 0 0 .066.743l-.07 2.791a58.888 58.888 0 0 1-.323-4.277l.434-.145-.022.824zm-.093-3.954a.345.345 0 0 0-.3-.144h-.043v-.268l.535-.139.016.051c.041.127.14.226.268.268l-.476.232zm.657-3.582a.468.468 0 0 0-.139 0l-.305.07-.02-.102c.161-.04.322-.082.48-.128l-.016.16zm1.297-2.224a1.126 1.126 0 0 0-.142.144c-.018.024-.032.046-.048.07l-.17.048a.457.457 0 0 0-.038-.137l.398-.125zm-.69 8.88c0-.115.019-.227.027-.342l.364-.11a.326.326 0 0 0 .018.145l-.409.307zm.177-2.272v-.067l.342-.067.037.097-.38.037zm.347-4.895v-.045l.102-.046c.074.09.156.173.243.249a2.703 2.703 0 0 1-.342-.168l-.003.01zm3.613-2.438a.385.385 0 0 0 .117.519.968.968 0 0 0-.35.347l-.112-.032-.126-.058-.144-.49a.388.388 0 0 0-.153-.214l.768-.072zm-.802 3.366l.227-.07.227.781-.51.099.056-.81zm-1.265-3.066c.198-.056.398-.105.596-.15l.185-.035a.412.412 0 0 0-.118.268v.064a4.011 4.011 0 0 0-.896-.091l.233-.056zm-.703 6.873l-.049-.131.487-.097-.438.228zm-.089-.939a.35.35 0 0 0 .048-.048l.551-.246.04.169-.639.125zm.688-4.068c.215.024.428.067.636.13l-.019.316a1.337 1.337 0 0 1-.604-.457l-.013.01zm.208 1.558l.34-.104-.048.724-.137.027-.155-.647zm.677 7.99l-.43.11.37-.387.803-.295c-.244.188-.492.378-.743.573zm.315-2.245c.212-.196.431-.384.658-.564.023.116.07.226.136.323-.26.086-.524.166-.791.244l-.003-.003zm1.07-1.895a.267.267 0 0 0-.014.056h-.019l-.451.227.802-.962c-.12.224-.225.438-.321.679h.003zm1.967 1.272a.487.487 0 0 0-.09-.155.468.468 0 0 0 .219 0v.07a2.673 2.673 0 0 1-.046.38v-.06a.38.38 0 0 0-.085-.235h.002zm.083-8.982l-.04.331a4.546 4.546 0 0 1-.457-.042 2.73 2.73 0 0 0-.588-.246c.358-.022.72-.035 1.083-.043h.002zm-1.01 15.73c0-.359.016-.717.024-1.07.03.053.07.099.12.134l-.144.935zm.363 3.501h-.115l.035-.227.072-.053c.011.093.006.187.003.28h.005zm-.267-10.364a.377.377 0 0 1-.267-.593c.226-.001.45-.044.66-.126.027.134.05.267.078.406a.326.326 0 0 0 .082.155.32.32 0 0 0-.197.017c-.123.05-.246.096-.37.141h.014zm1.024 12.415l-.652-.112c.219-.08.438-.158.657-.23a2.425 2.425 0 0 0-.018.342h.013zm.802-2.735c.016.136.035.267.05.412a.436.436 0 0 0-.178-.067l.128-.345zm.23 3.042l-.225-.083v-.802l.057-.016c.083.232.15.468.2.709-.012.065-.027.129-.045.192h.013z"/>
        <path stroke="#FFF" stroke-width=".5" d="M62.567 26.885s-.268 7.592.211 10.72h4.096s-.032-7.504.185-10.257"/>
        <path stroke="#FFF" stroke-width=".5" d="M58.537 26.885c-.406 3.823.129 7.298-.088 11.174l2.313.43c.733 0 1.588.126 2.31 0 .572-.098.383-.213.383-.884"/>
        <path stroke="#FFF" stroke-width=".5" d="M58.433 29.406c.217 2.745-.465 5.445-.877 8.137l-4.363.417c.366-1.154.064 0 0 0 1.195-7.792.927-15.812 1.114-23.57 2.482.166 0 .845 0 0 8.102.535 16.39.268 24.412 0 .402.067.775.253 1.07.535 1.07 7.752-.268 15.505 0 23.257-.802 0-1.337.535-2.407 0-.267 0-.534.268-.802.268-.535 0-.802-.268-1.452-.169.046-1.826.107 0 0 0 .115-3.574.383-7.05.115-10.524a2.693 2.693 0 0 0-.802-.268c-.802.802-2.139 1.337-3.315.872 0 2.83.695.224 0 0 .107 3.405.107 6.613-.022 10.118-.898-.037 0-.535 0 0l-2.692-.115c-.666-.03-2.23.32-1.973-.77"/>
        <path fill="#E23B5B" d="M43.503 44.996L43.13 24.78S7.086 22.639 7.516 26.25c1.07 8.953.104 24.097.104 24.097s.669 1.04 2.658.802c1.516-.179 2.003.334 3.174.746.802.267 1.751 0 1.82-1.31-.133 5.379-1.82 8.213-1.82 8.213h7.636c.99-1.337 1.77-9.55 1.102-12.15 0 0 1.537 1.793 2.941 1.154.743-.336 3.185-1.87 3.54-.898.556 1.532.74 11.907.74 11.907h6.953v1.141h7.139c.829-2.034 0-14.957 0-14.957z"/>
        <path stroke="#000" stroke-width=".5" d="M20.658 44.336s1.992 9.755-.998 13.808h-7.628s2.49-4.181 1.66-12.03M35.267 44.336s-.331 10.768.998 13.808h-8.27s.363-8.996 0-12.543"/>
        <path stroke="#000" stroke-width=".5" d="M21.171 48.073s.947-2.074 2.211-1.205c.66.454.96 1.04 1.757.943 1.024-.123 1.094-1.77 2.928-1.336"/>
        <path stroke="#000" stroke-width=".5" d="M13.845 49.923c-.064 1.318-1.03 1.604-1.82 1.318-1.172-.411-1.661-.925-3.175-.746-1.989.236-2.657-.802-2.657-.802s.965-15.144-.105-24.096c-.433-3.604 35.623-1.479 35.623-1.479l.372 20.218s.829 12.923 0 14.949h-7.14v-1.141"/>
    </g>
</svg>
